/* XPM */
static char *timekpr[] = {
/* columns rows colors chars-per-pixel */
"32 32 149 2",
"   c #121212",
".  c #1C1C1C",
"X  c #2C2C2C",
"o  c gray23",
"O  c #6C2E2B",
"+  c #6F302E",
"@  c #753331",
"#  c #7C3635",
"$  c #414141",
"%  c #584545",
"&  c #515151",
"*  c #5C5252",
"=  c gray36",
"-  c #764A4A",
";  c #646464",
":  c #6A6A6A",
">  c #833A3A",
",  c #893D3D",
"<  c #CD2829",
"1  c #D22D2E",
"2  c #CA302F",
"3  c #CE3334",
"4  c #C83936",
"5  c #CC3B3A",
"6  c #D23738",
"7  c #D33C3C",
"8  c #D83D3E",
"9  c #CC3B40",
"0  c #8E4141",
"q  c #924445",
"w  c #895051",
"e  c #945253",
"r  c #A34D4E",
"t  c #A45357",
"y  c #AB5555",
"u  c #BC5959",
"i  c #AA6264",
"p  c #CD4746",
"a  c #C7424B",
"s  c #CE4748",
"d  c #D44243",
"f  c #DA4445",
"g  c #DB4749",
"h  c #D44A4B",
"j  c #DB4A4B",
"k  c #CB4B53",
"l  c #D74E51",
"z  c #D94F50",
"x  c #CE5553",
"c  c #D25555",
"v  c #DB5454",
"b  c #D95658",
"n  c #D55A59",
"m  c #DC5C5D",
"M  c #E04D4E",
"N  c #E15152",
"B  c #E05759",
"V  c #E15D5D",
"C  c #C75B66",
"Z  c #D35C60",
"A  c #DB5E60",
"S  c #C86464",
"D  c #C9616D",
"F  c #DD6364",
"G  c #D26A67",
"H  c #D1696F",
"J  c #DE6969",
"K  c #CE7171",
"L  c #CB717E",
"P  c #CC7B7C",
"I  c #DB7775",
"U  c #E26464",
"Y  c #E26C6C",
"T  c #E47373",
"R  c #E37E7E",
"E  c #DA807F",
"W  c #9F7F80",
"Q  c #E67F81",
"!  c #838383",
"~  c #8B8A8A",
"^  c #949494",
"/  c #9A9A9A",
"(  c #AA9696",
")  c #A39D9D",
"_  c #BE9B9C",
"`  c #BF91BA",
"'  c #A4A4A4",
"]  c #AAAAAA",
"[  c #B2A2A3",
"{  c #BCAAAA",
"}  c #B3B3B3",
"|  c #BCBCBC",
" . c #DA8382",
".. c #DD8B8B",
"X. c #CD8D9B",
"o. c #DC8A91",
"O. c #DC9090",
"+. c #D8959F",
"@. c #E48484",
"#. c #E58A8B",
"$. c #E98C8C",
"%. c #EB9797",
"&. c #EA9598",
"*. c #EC9C9C",
"=. c #C696A8",
"-. c #D193A0",
";. c #DB9AA3",
":. c #C397BF",
">. c #C1AEAE",
",. c #CEACBD",
"<. c #D1A7B6",
"1. c #D6AAB7",
"2. c #EEA4A4",
"3. c #E8A5AA",
"4. c #EEACAC",
"5. c #F1A6A6",
"6. c #EFB3B3",
"7. c #F0B4B4",
"8. c #C49CC0",
"9. c #C9A2C5",
"0. c #CCB6C8",
"q. c #D0BECE",
"w. c #C3C3C3",
"e. c #CAC4C9",
"r. c #CCCCCC",
"t. c #DCC3DA",
"y. c #DCCEDB",
"u. c #D3D3D3",
"i. c #DAD1D1",
"p. c #DED1DD",
"a. c #DCDBDB",
"s. c #EAC8CE",
"d. c #E9CBD2",
"f. c #E2CEDB",
"g. c #FAD2D3",
"h. c #F3D8DC",
"j. c #FBD9D9",
"k. c #E4D6E3",
"l. c #E5DBE4",
"z. c #E4E4E4",
"x. c #ECE5EC",
"c. c #EBEAEB",
"v. c #FCE0E0",
"b. c #FDEFEF",
"n. c #F2EDF2",
"m. c #F5F4F5",
"M. c #F8F2F7",
"N. c #FFFEFF",
"B. c None",
/* pixels */
"B.B.B.B.B.B.B.B.B.B.B.B.B.B.B.B.B.B.B.B.B.B.B.B.B.B.B.B.B.B.B.B.",
"B.B.B.B.B.B.B.B.B.B.B.B.] a.a.' ] u.a.} B.B.B.B.B.B.B.B.B.B.B.B.",
"B.B.B.B.B.B.B.B.B.B.^ c.a.{ ( ~ ~ ) { i.c./ B.B.B.B.B.B.B.B.B.B.",
"B.B.B.B.B.B.B.B.B.' c.>.i e B.B.B.B.- i _ z.] B.B.B.B.B.B.B.B.B.",
"B.B.B.B.B.B.B.B.B.c.[ w B.B.B.B.B.B.B.B.t W z.! B.B.B.B.B.B.B.B.",
"B.B.B.B.B.B.B.B.} u.* B.B.B.B.B.B.B.B.B.B.% } ' B.B.B.B.B.B.B.B.",
"B.B.B.B.B.B.B.B.a./ B.B.B.B.B.B.B.B.B.B.B.B.: w.X B.B.B.B.B.B.B.",
"B.B.B.B.B.B.B.; z.= B.B.B.B.B.B.B.B.B.B.B.B.$ u.& B.B.B.B.B.B.B.",
"B.B.B.B.B.B.B.! z.o B.B.B.B.B.B.B.B.B.B.B.B.X r.! B.B.B.B.B.B.B.",
"B.B.B.B.B.B.B./ a.X B.B.B.B.B.B.B.B.B.B.B.B.B.w.} B.B.B.B.B.B.B.",
"B.B.B.B.B.B.B.' a.X B.B.B.B.B.B.B.B.B.B.B.B.B.w.w.B.B.B.B.B.B.B.",
"B.B.B.B.B.B.B./ a.X B.B.B.B.B.B.B.B.B.B.B.B.B.w.w.B.B.B.B.B.B.B.",
"B.B.B.B.B.B.B./ u.X B.B.B.B.B.B.B.B.B.B.B.B.B.| | B.B.B.B.B.B.B.",
"B.B.B.B.B.B.B./ r.X B.B.B.B.B.B.B.B.B.B.B.B.B.} | B.B.B.B.B.B.B.",
"B.B.B.B.B.B.f K ..P #.@. .E G x c n I #.#.$. .O. .s B.B.B.B.B.B.",
"B.B.B.B.B.B.8 $.*.U 8 8 3 H -.<.,.1.+.Z 2 6 g R %.f B.B.B.B.B.B.",
"B.B.B.B.B.B.f 4.6.#.7 5 X.q.l.n.` M.x.f.o.3 m $.4.b B.B.B.B.B.B.",
"B.B.B.B.B.B.f 4.7.Q 3 =.y.m.N.m.e.N.m.m.n.;.7 $.4.m B.B.B.B.B.B.",
"B.B.B.B.B.B.f 2.4.h L y.N.z.m.m.r.N.' r.N.m.A R 4.A B.B.B.B.B.B.",
"B.B.B.B.B.B.M 5.2.3 0.m.N.m.z.m.r.a.^ N.z.c.s.d 2.U B.B.B.B.B.B.",
"B.B.B.B.B.B.j *.#.a p.N.^ w.c.z.r.^ u.!   } N.6 2.U B.B.B.B.B.B.",
"B.B.B.B.B.B.M *.Y C l.N.} . & | ] : . & a.M.N.h %.m B.B.B.B.B.B.",
"B.B.B.B.B.B.d @.v D 8.t.N.m.!   . X | N.N.9.f.l $.b B.B.B.B.B.B.",
"B.B.B.B.B.B.g @.m k x.N.N.N.N.z.~ N.N.N.N.N.N.6 R z B.B.B.B.B.B.",
"B.B.B.B.B.B.d T v 9 k.N.N.N.N.N.N.N.N.N.N.N.b.1 T g B.B.B.B.B.B.",
"B.B.B.B.B.B.N T j < ;.N.N.N.N.N.N.N.N.N.N.N.$.j T j B.B.B.B.B.B.",
"B.B.B.B.B.B.v T U V d f.N.N.N.N.M.N.N.N.N.j.7 V T j B.B.B.B.B.B.",
"B.B.B.B.B.B.v Y m b h m d.N.N.N.:.N.N.N.g.h m U T B B.B.B.B.B.B.",
"B.B.B.B.B.B.v T U U m v d 3.h.N.k.N.v.&.7 m m F J v B.B.B.B.B.B.",
"B.B.B.B.B.B.z J F m n n c p 4 h A d 5 h n m F Y Y m B.B.B.B.B.B.",
"B.B.B.B.B.B.b S y q , > # @ O O O + @ # > , 0 r u c B.B.B.B.B.B.",
"B.B.B.B.B.B.B.B.B.B.B.B.B.B.B.X X X B.B.B.B.B.B.B.B.B.B.B.B.B.B."
};
