<?xml version="1.0" encoding="UTF-8" standalone="no"?>
<svg
   xmlns:dc="http://purl.org/dc/elements/1.1/"
   xmlns:cc="http://creativecommons.org/ns#"
   xmlns:rdf="http://www.w3.org/1999/02/22-rdf-syntax-ns#"
   xmlns:svg="http://www.w3.org/2000/svg"
   xmlns="http://www.w3.org/2000/svg"
   xmlns:xlink="http://www.w3.org/1999/xlink"
   xmlns:sodipodi="http://sodipodi.sourceforge.net/DTD/sodipodi-0.dtd"
   xmlns:inkscape="http://www.inkscape.org/namespaces/inkscape"
   viewBox="0 0 128 128"
   width="512"
   height="512"
   version="1.0"
   id="svg2657"
   sodipodi:version="0.32"
   inkscape:version="0.46"
   sodipodi:docname="Padlock.svg"
   inkscape:output_extension="org.inkscape.output.svg.inkscape"
   inkscape:export-filename="/home/forger/Desktop/Padlock-green.png"
   inkscape:export-xdpi="5.625"
   inkscape:export-ydpi="5.625">
  <sodipodi:namedview
	 inkscape:window-height="785"
	 inkscape:window-width="1151"
	 inkscape:pageshadow="2"
	 inkscape:pageopacity="0.0"
	 guidetolerance="10.0"
	 gridtolerance="10.0"
	 objecttolerance="10.0"
	 borderopacity="1.0"
	 bordercolor="#666666"
	 pagecolor="#ffffff"
	 id="base"
	 showgrid="false"
	 inkscape:zoom="0.3"
	 inkscape:cx="464.32389"
	 inkscape:cy="277.33333"
	 inkscape:window-x="0"
	 inkscape:window-y="30"
	 inkscape:current-layer="svg2657" />
  <metadata
	 id="metadata2659">
	<rdf:RDF>
	  <cc:Work
		 rdf:about="">
		<dc:title>Padlock</dc:title>
		<dc:description>A closed brass padlock icon with shadow.</dc:description>
		<dc:subject>
		  <rdf:Bag>
			<rdf:li>icon</rdf:li>
			<rdf:li>lock</rdf:li>
			<rdf:li>padlock</rdf:li>
			<rdf:li>secure</rdf:li>
			<rdf:li>security</rdf:li>
		  </rdf:Bag>
		</dc:subject>
		<dc:creator>
		  <cc:Agent>
			<dc:title>AJ Ashton</dc:title>
		  </cc:Agent>
		</dc:creator>
		<dc:rights>
		  <cc:Agent
			 rdf:resource="#ajashton" />
		</dc:rights>
		<dc:type
		   rdf:resource="http://purl.org/dc/dcmitype/StillImage" />
		<cc:license
		   rdf:resource="http://web.resource.org/cc/PublicDomain" />
		<dc:format>image/svg+xml</dc:format>
	  </cc:Work>
	  <cc:License
		 rdf:about="http://web.resource.org/cc/PublicDomain">
		<cc:permits
		   rdf:resource="http://web.resource.org/cc/Reproduction" />
		<cc:permits
		   rdf:resource="http://web.resource.org/cc/Distribution" />
		<cc:permits
		   rdf:resource="http://web.resource.org/cc/DerivativeWorks" />
	  </cc:License>
	</rdf:RDF>
  </metadata>
  <defs
	 id="defs2661">
	<inkscape:perspective
	   sodipodi:type="inkscape:persp3d"
	   inkscape:vp_x="0 : 256 : 1"
	   inkscape:vp_y="0 : 1000 : 0"
	   inkscape:vp_z="512 : 256 : 1"
	   inkscape:persp3d-origin="256 : 170.66667 : 1"
	   id="perspective2783" />
	<linearGradient
	   id="lg3057">
	  <stop
		 offset="0.0"
		 stop-color="#282828"
		 id="stop2664" />
	  <stop
		 offset="1.0"
		 stop-color="#282828"
		 stop-opacity="0.0"
		 id="stop2666" />
	</linearGradient>
	<linearGradient
	   id="lg2834">
	  <stop
		 offset="0.0"
		 stop-color="#FFE19C"
		 id="stop2669" />
	  <stop
		 offset="1.0"
		 stop-color="#B79E4F"
		 stop-opacity="0.0"
		 id="stop2671" />
	</linearGradient>
	<linearGradient
	   id="lg2780">
	  <stop
		 offset="0.0"
		 stop-color="white"
		 id="stop2674" />
	  <stop
		 offset="1.0"
		 stop-color="white"
		 stop-opacity="0.0"
		 id="stop2676" />
	</linearGradient>
	<linearGradient
	   id="lg2713">
	  <stop
		 offset="0.0"
		 stop-color="black"
		 id="stop2679" />
	  <stop
		 offset="1.0"
		 stop-color="white"
		 id="stop2681" />
	</linearGradient>
	<linearGradient
	   id="lg2701">
	  <stop
		 offset="0"
		 stop-color="#A47C44"
		 id="stop2684"
		 style="stop-color:#628034;stop-opacity:1;" />
	  <stop
		 offset="0.75"
		 stop-color="#BAA363"
		 id="stop2686"
		 style="stop-color:#5b833a;stop-opacity:1;" />
	  <stop
		 offset="1"
		 stop-color="#D6C795"
		 id="stop2688"
		 style="stop-color:#8cbc50;stop-opacity:1;" />
	</linearGradient>
	<linearGradient
	   gradientTransform="matrix(2.1518, 0, 0, 1.77085, -0.0513035, 4.35184)"
	   gradientUnits="userSpaceOnUse"
	   id="lg2707"
	   spreadMethod="reflect"
	   x1="29.613848"
	   x2="44.723549"
	   xlink:href="#lg2701"
	   y1="52.608921"
	   y2="52.608921" />
	<linearGradient
	   gradientTransform="matrix(1.12122, 0, 0, 0.891883, 0, 4)"
	   gradientUnits="userSpaceOnUse"
	   id="lg2719"
	   spreadMethod="reflect"
	   x1="28.071486"
	   x2="28.071486"
	   xlink:href="#lg2713"
	   y1="40.272228"
	   y2="42.645634" />
	<linearGradient
	   gradientTransform="matrix(2.21879, 0, 0, 1.82598, -0.0513035, -1.01283)"
	   gradientUnits="userSpaceOnUse"
	   id="lg2732"
	   spreadMethod="reflect"
	   x1="29.093641"
	   x2="29.093641"
	   xlink:href="#lg2713"
	   y1="46.357063"
	   y2="47.295517" />
	<linearGradient
	   gradientTransform="matrix(2.21879, 0, 0, 1.82598, -0.0513035, -1.01283)"
	   gradientUnits="userSpaceOnUse"
	   id="lg2736"
	   spreadMethod="reflect"
	   x1="24.261463"
	   x2="24.605862"
	   xlink:href="#lg2713"
	   y1="44.011002"
	   y2="45.887836" />
	<linearGradient
	   gradientTransform="scale(1.10233, 0.907173)"
	   gradientUnits="userSpaceOnUse"
	   id="lg2740"
	   spreadMethod="reflect"
	   x1="17.681860"
	   x2="17.425413"
	   xlink:href="#lg2713"
	   y1="60.433849"
	   y2="62.779984" />
	<radialGradient
	   cx="20.360580"
	   cy="22.546398"
	   fx="20.360580"
	   fy="22.546396"
	   gradientTransform="matrix(0.433337, 0, 0, 1.43496, 6.40989, -0.113137)"
	   gradientUnits="userSpaceOnUse"
	   id="rg2788"
	   r="15.156592"
	   xlink:href="#lg2780" />
	<radialGradient
	   cx="20.360580"
	   cy="22.546398"
	   fx="20.360580"
	   fy="22.546396"
	   gradientTransform="matrix(0.5, 0, 0, 1.67519, 5.00297, -5.10815)"
	   gradientUnits="userSpaceOnUse"
	   id="rg2792"
	   r="15.156592"
	   xlink:href="#lg2780" />
	<radialGradient
	   cx="20.360580"
	   cy="22.546398"
	   fx="20.360580"
	   fy="22.546396"
	   gradientTransform="matrix(0.621397, 0, 0, 1.88206, 2.38883, -9.40941)"
	   gradientUnits="userSpaceOnUse"
	   id="rg2796"
	   r="15.156592"
	   xlink:href="#lg2780" />
	<radialGradient
	   cx="20.360580"
	   cy="22.546398"
	   fx="20.360580"
	   fy="22.546396"
	   gradientTransform="matrix(0.433337, 0, 0, 1.43496, 6.40989, -0.113137)"
	   gradientUnits="userSpaceOnUse"
	   id="rg2811"
	   r="15.156592"
	   xlink:href="#lg2780" />
	<radialGradient
	   cx="20.360580"
	   cy="22.546398"
	   fx="20.360580"
	   fy="22.546396"
	   gradientTransform="matrix(0.5, 0, 0, 1.67519, 5.00297, -5.10815)"
	   gradientUnits="userSpaceOnUse"
	   id="rg2813"
	   r="15.156592"
	   xlink:href="#lg2780" />
	<radialGradient
	   cx="20.360580"
	   cy="22.546398"
	   fx="20.360580"
	   fy="22.546396"
	   gradientTransform="matrix(0.621397, 0, 0, 1.88206, 2.38883, -9.40941)"
	   gradientUnits="userSpaceOnUse"
	   id="rg2815"
	   r="15.156592"
	   xlink:href="#lg2780" />
	<radialGradient
	   cx="20.360580"
	   cy="22.546398"
	   fx="20.360580"
	   fy="22.546396"
	   gradientTransform="matrix(0.433337, 0, 0, 1.43496, 6.40989, -0.113137)"
	   gradientUnits="userSpaceOnUse"
	   id="rg2817"
	   r="15.156592"
	   xlink:href="#lg2780" />
	<radialGradient
	   cx="20.360580"
	   cy="22.546398"
	   fx="20.360580"
	   fy="22.546396"
	   gradientTransform="matrix(0.5, 0, 0, 1.67519, 5.00297, -5.10815)"
	   gradientUnits="userSpaceOnUse"
	   id="rg2819"
	   r="15.156592"
	   xlink:href="#lg2780" />
	<radialGradient
	   cx="20.360580"
	   cy="22.546398"
	   fx="20.360580"
	   fy="22.546396"
	   gradientTransform="matrix(0.621397, 0, 0, 1.88206, 2.38883, -9.40941)"
	   gradientUnits="userSpaceOnUse"
	   id="rg2821"
	   r="15.156592"
	   xlink:href="#lg2780" />
	<radialGradient
	   cx="17.191872"
	   cy="14.639010"
	   fx="17.191872"
	   fy="14.639010"
	   gradientTransform="scale(1.89625, 0.527358)"
	   gradientUnits="userSpaceOnUse"
	   id="rg2840"
	   r="3.5649405"
	   xlink:href="#lg2834" />
	<radialGradient
	   cx="21.595108"
	   cy="8.9813547"
	   fx="21.595108"
	   fy="8.9813547"
	   gradientTransform="matrix(2.36656, 0, 0, 1.72651, -0.404355, -0.012826)"
	   gradientUnits="userSpaceOnUse"
	   id="rg2869"
	   r="6.0678878"
	   xlink:href="#lg2834" />
	<radialGradient
	   cx="21.595108"
	   cy="8.9813547"
	   fx="21.595108"
	   fy="8.9813547"
	   gradientTransform="matrix(-2.36656, 0, 0, 1.72651, 129.123, -0.112925)"
	   gradientUnits="userSpaceOnUse"
	   id="rg2873"
	   r="6.0678878"
	   xlink:href="#lg2834" />
	<linearGradient
	   gradientTransform="matrix(2.16108, 0, 0, 1.80454, -0.0513035, 2.26707)"
	   gradientUnits="userSpaceOnUse"
	   id="lg2895"
	   x1="33.184048"
	   x2="33.184048"
	   xlink:href="#lg2780"
	   y1="24.384579"
	   y2="-13.170087" />
	<radialGradient
	   cx="27.270315"
	   cy="16.278088"
	   fx="27.270315"
	   fy="16.278088"
	   gradientTransform="scale(0.973329, 1.0274)"
	   gradientUnits="userSpaceOnUse"
	   id="rg2929"
	   r="13.638700"
	   xlink:href="#lg2780" />
	<linearGradient
	   gradientTransform="matrix(2.21022, 0, 0, 1.96428, -1.51586, -2.17132)"
	   gradientUnits="userSpaceOnUse"
	   id="lg2935"
	   x1="33.184048"
	   x2="33.184048"
	   xlink:href="#lg2780"
	   y1="24.384579"
	   y2="-13.170087" />
	<linearGradient
	   gradientTransform="matrix(1.632, 0, 0, 2.48251, -0.0513035, -0.012826)"
	   gradientUnits="userSpaceOnUse"
	   id="lg2943"
	   x1="38.781849"
	   x2="38.781849"
	   xlink:href="#lg2780"
	   y1="9.5745525"
	   y2="7.5863166" />
	<linearGradient
	   gradientTransform="matrix(1.63752, 0, 0, 2.47415, -0.0513035, -0.012826)"
	   gradientUnits="userSpaceOnUse"
	   id="lg2951"
	   x1="38.362892"
	   x2="39.723621"
	   xlink:href="#lg2780"
	   y1="11.170151"
	   y2="6.0918369" />
	<radialGradient
	   cx="21.595108"
	   cy="8.9813547"
	   fx="21.595108"
	   fy="8.9813547"
	   gradientTransform="matrix(3.08504, 0, 0, 2.0529, -15.9848, -3.14928)"
	   gradientUnits="userSpaceOnUse"
	   id="rg2955"
	   r="6.0678878"
	   xlink:href="#lg2834" />
	<radialGradient
	   cx="21.595108"
	   cy="8.9813547"
	   fx="21.595108"
	   fy="8.9813547"
	   gradientTransform="matrix(-2.84628, 0, 0, 2.08794, 139.525, -3.58618)"
	   gradientUnits="userSpaceOnUse"
	   id="rg2959"
	   r="6.0678878"
	   xlink:href="#lg2834" />
	<radialGradient
	   cx="8.0178375"
	   cy="231.98276"
	   fx="8.0178375"
	   fy="231.98276"
	   gradientTransform="scale(3.74166,0.267261)"
	   gradientUnits="userSpaceOnUse"
	   id="rg3063"
	   r="7.4833150"
	   xlink:href="#lg3057" />
	<radialGradient
	   cx="8.0178375"
	   cy="231.98276"
	   fx="8.0178375"
	   fy="231.98276"
	   gradientTransform="scale(3.74166,0.267261)"
	   gradientUnits="userSpaceOnUse"
	   id="rg3069"
	   r="7.4833150"
	   xlink:href="#lg3057" />
	<radialGradient
	   cx="8.0178375"
	   cy="231.98276"
	   fx="8.0178375"
	   fy="231.98276"
	   gradientTransform="scale(3.74166,0.267261)"
	   gradientUnits="userSpaceOnUse"
	   id="rg3071"
	   r="7.4833150"
	   xlink:href="#lg3057" />
	<linearGradient
	   gradientTransform="matrix(2.13612, 0, 0, 1.82598, 2.3487, -1.01283)"
	   gradientUnits="userSpaceOnUse"
	   id="lg3080"
	   spreadMethod="pad"
	   x1="26.974447"
	   x2="26.974447"
	   xlink:href="#lg2780"
	   y1="68.680031"
	   y2="44.981197" />
	<linearGradient
	   gradientTransform="matrix(1.632, 0, 0, 2.43607, -0.0513035, 2.00968)"
	   gradientUnits="userSpaceOnUse"
	   id="lg3084"
	   x1="35.995708"
	   x2="35.995708"
	   xlink:href="#lg2780"
	   y1="1.6246380"
	   y2="11.710631" />
	<linearGradient
	   gradientTransform="matrix(2.21879, 0, 0, 1.82598, -0.0513035, -1.01283)"
	   gradientUnits="userSpaceOnUse"
	   id="lg3086"
	   spreadMethod="reflect"
	   x1="17.681860"
	   x2="17.425413"
	   xlink:href="#lg2713"
	   y1="60.433849"
	   y2="62.779984" />
	<g
	   id="brass-highlights">
	  <path
		 d="M 13.971247,30.766863 C 13.531705,33.396386 13.040370,50.075728 14.667687,53.646863 C 16.259550,57.140196 16.060569,36.980196 19.940738,33.806863 C 23.861905,30.6 14.385794,28.286863 13.971247,30.766863 z"
		 opacity="0.40277776"
		 fill="url(#rg2811)"
		 id="path2721" />
	  <path
		 d="M 13.728722,30.941568 C 13.221493,34.011307 12.654496,53.482989 14.532410,57.651979 C 16.369410,61.730142 16.139785,38.195094 20.617473,34.490503 C 25.142472,30.746772 14.207108,28.046383 13.728722,30.941568 z"
		 opacity="0.29999998"
		 fill="url(#rg2813)"
		 id="path2723" />
	  <path
		 d="M 13.231668,31.092008 C 12.601372,34.540822 11.896808,56.417020 14.230350,61.1 C 16.513051,65.682595 16.227713,39.241256 21.791801,35.079193 C 27.414678,30.873157 13.826121,27.839303 13.231668,31.092008 z"
		 opacity="0.2"
		 fill="url(#rg2815)"
		 id="path2725" />
	</g>
	<linearGradient
	   inkscape:collect="always"
	   xlink:href="#lg2701"
	   id="linearGradient5129"
	   gradientUnits="userSpaceOnUse"
	   gradientTransform="matrix(2.1518,0,0,1.77085,-5.13035e-2,4.35184)"
	   spreadMethod="reflect"
	   x1="29.613848"
	   y1="52.608921"
	   x2="44.723549"
	   y2="52.608921" />
	<linearGradient
	   inkscape:collect="always"
	   xlink:href="#lg2713"
	   id="linearGradient5131"
	   gradientUnits="userSpaceOnUse"
	   gradientTransform="matrix(2.21879,0,0,1.82598,-5.13035e-2,-1.01283)"
	   spreadMethod="reflect"
	   x1="29.093641"
	   y1="46.357063"
	   x2="29.093641"
	   y2="47.295517" />
	<linearGradient
	   inkscape:collect="always"
	   xlink:href="#lg2713"
	   id="linearGradient5133"
	   gradientUnits="userSpaceOnUse"
	   gradientTransform="matrix(2.21879,0,0,1.82598,-5.13035e-2,-1.01283)"
	   spreadMethod="reflect"
	   x1="24.261463"
	   y1="44.011002"
	   x2="24.605862"
	   y2="45.887836" />
	<linearGradient
	   inkscape:collect="always"
	   xlink:href="#lg2713"
	   id="linearGradient5135"
	   gradientUnits="userSpaceOnUse"
	   gradientTransform="matrix(2.21879,0,0,1.82598,-5.13035e-2,-1.01283)"
	   spreadMethod="reflect"
	   x1="17.681860"
	   y1="60.433849"
	   x2="17.425413"
	   y2="62.779984" />
	<linearGradient
	   inkscape:collect="always"
	   xlink:href="#lg2780"
	   id="linearGradient5137"
	   gradientUnits="userSpaceOnUse"
	   gradientTransform="matrix(2.13612,0,0,1.82598,2.3487,-1.01283)"
	   spreadMethod="pad"
	   x1="26.974447"
	   y1="68.680031"
	   x2="26.974447"
	   y2="44.981197" />
	<linearGradient
	   inkscape:collect="always"
	   xlink:href="#lg2780"
	   id="linearGradient5143"
	   gradientUnits="userSpaceOnUse"
	   gradientTransform="matrix(2.0711793,0,0,1.770468,4.7053921,2.9338913)"
	   spreadMethod="pad"
	   x1="26.974447"
	   y1="68.680031"
	   x2="26.974447"
	   y2="44.981197" />
	<linearGradient
	   inkscape:collect="always"
	   xlink:href="#lg2713"
	   id="linearGradient5147"
	   gradientUnits="userSpaceOnUse"
	   gradientTransform="matrix(2.151336,0,0,1.770468,2.1271193,2.6826586)"
	   spreadMethod="reflect"
	   x1="17.681860"
	   y1="60.433849"
	   x2="17.425413"
	   y2="62.779984" />
	<linearGradient
	   inkscape:collect="always"
	   xlink:href="#lg2713"
	   id="linearGradient5150"
	   gradientUnits="userSpaceOnUse"
	   gradientTransform="matrix(2.151336,0,0,1.770468,2.1271188,2.6826586)"
	   spreadMethod="reflect"
	   x1="24.261463"
	   y1="44.011002"
	   x2="24.605862"
	   y2="45.887836" />
	<linearGradient
	   inkscape:collect="always"
	   xlink:href="#lg2713"
	   id="linearGradient5153"
	   gradientUnits="userSpaceOnUse"
	   gradientTransform="matrix(2.151336,0,0,1.770468,2.127119,2.9338913)"
	   spreadMethod="reflect"
	   x1="29.093641"
	   y1="46.357063"
	   x2="29.093641"
	   y2="47.295517" />
	<linearGradient
	   inkscape:collect="always"
	   xlink:href="#lg2701"
	   id="linearGradient5156"
	   gradientUnits="userSpaceOnUse"
	   gradientTransform="matrix(2.0863827,0,0,1.717014,2.3783515,8.1354683)"
	   spreadMethod="reflect"
	   x1="29.613848"
	   y1="52.608921"
	   x2="44.723549"
	   y2="52.608921" />
	<linearGradient
	   inkscape:collect="always"
	   xlink:href="#lg2780"
	   id="linearGradient5158"
	   gradientUnits="userSpaceOnUse"
	   gradientTransform="matrix(1.632,0,0,2.43607,-5.13035e-2,2.00968)"
	   x1="35.995708"
	   y1="1.6246380"
	   x2="35.995708"
	   y2="11.710631" />
	<linearGradient
	   inkscape:collect="always"
	   xlink:href="#lg2780"
	   id="linearGradient5160"
	   gradientUnits="userSpaceOnUse"
	   gradientTransform="matrix(1.63752,0,0,2.47415,-5.13035e-2,-1.2826e-2)"
	   x1="38.362892"
	   y1="11.170151"
	   x2="39.723621"
	   y2="6.0918369" />
	<radialGradient
	   inkscape:collect="always"
	   xlink:href="#lg2834"
	   id="radialGradient5162"
	   gradientUnits="userSpaceOnUse"
	   gradientTransform="matrix(2.36656,0,0,1.72651,-0.404355,-1.2826e-2)"
	   cx="21.595108"
	   cy="8.9813547"
	   fx="21.595108"
	   fy="8.9813547"
	   r="6.0678878" />
	<radialGradient
	   inkscape:collect="always"
	   xlink:href="#lg2834"
	   id="radialGradient5164"
	   gradientUnits="userSpaceOnUse"
	   gradientTransform="matrix(-2.36656,0,0,1.72651,129.123,-0.112925)"
	   cx="21.595108"
	   cy="8.9813547"
	   fx="21.595108"
	   fy="8.9813547"
	   r="6.0678878" />
	<linearGradient
	   inkscape:collect="always"
	   xlink:href="#lg2780"
	   id="linearGradient5166"
	   gradientUnits="userSpaceOnUse"
	   gradientTransform="matrix(1.632,0,0,2.48251,-5.13035e-2,-1.2826e-2)"
	   x1="38.781849"
	   y1="9.5745525"
	   x2="38.781849"
	   y2="7.5863166" />
	<linearGradient
	   inkscape:collect="always"
	   xlink:href="#lg2780"
	   id="linearGradient5168"
	   gradientUnits="userSpaceOnUse"
	   gradientTransform="matrix(2.21022,0,0,1.96428,-1.51586,-2.17132)"
	   x1="33.184048"
	   y1="24.384579"
	   x2="33.184048"
	   y2="-13.170087" />
	<linearGradient
	   inkscape:collect="always"
	   xlink:href="#lg2780"
	   id="linearGradient5170"
	   gradientUnits="userSpaceOnUse"
	   gradientTransform="matrix(2.16108,0,0,1.80454,-5.13035e-2,2.26707)"
	   x1="33.184048"
	   y1="24.384579"
	   x2="33.184048"
	   y2="-13.170087" />
	<radialGradient
	   inkscape:collect="always"
	   xlink:href="#lg2834"
	   id="radialGradient5172"
	   gradientUnits="userSpaceOnUse"
	   gradientTransform="matrix(3.08504,0,0,2.0529,-15.9848,-3.14928)"
	   cx="21.595108"
	   cy="8.9813547"
	   fx="21.595108"
	   fy="8.9813547"
	   r="6.0678878" />
	<radialGradient
	   inkscape:collect="always"
	   xlink:href="#lg2834"
	   id="radialGradient5174"
	   gradientUnits="userSpaceOnUse"
	   gradientTransform="matrix(-2.84628,0,0,2.08794,139.525,-3.58618)"
	   cx="21.595108"
	   cy="8.9813547"
	   fx="21.595108"
	   fy="8.9813547"
	   r="6.0678878" />
	<linearGradient
	   inkscape:collect="always"
	   xlink:href="#lg2780"
	   id="linearGradient5187"
	   gradientUnits="userSpaceOnUse"
	   gradientTransform="matrix(-2.0953806,0,0,1.7496798,179.18019,1.6991904)"
	   x1="33.184048"
	   y1="24.384579"
	   x2="33.184048"
	   y2="-13.170087" />
	<linearGradient
	   inkscape:collect="always"
	   xlink:href="#lg2780"
	   id="linearGradient5190"
	   gradientUnits="userSpaceOnUse"
	   gradientTransform="matrix(-2.1430267,0,0,1.9045635,180.60023,-2.6042677)"
	   x1="33.184048"
	   y1="24.384579"
	   x2="33.184048"
	   y2="-13.170087" />
	<linearGradient
	   inkscape:collect="always"
	   xlink:href="#lg2780"
	   id="linearGradient5193"
	   gradientUnits="userSpaceOnUse"
	   gradientTransform="matrix(-1.5823852,0,0,2.4070387,179.18019,-0.5113936)"
	   x1="38.781849"
	   y1="9.5745525"
	   x2="38.781849"
	   y2="7.5863166" />
	<linearGradient
	   inkscape:collect="always"
	   xlink:href="#lg2780"
	   id="linearGradient5202"
	   gradientUnits="userSpaceOnUse"
	   gradientTransform="matrix(-1.5877374,0,0,2.3989328,179.18019,-0.5113936)"
	   x1="38.362892"
	   y1="11.170151"
	   x2="39.723621"
	   y2="6.0918369" />
	<linearGradient
	   inkscape:collect="always"
	   xlink:href="#lg2780"
	   id="linearGradient5205"
	   gradientUnits="userSpaceOnUse"
	   gradientTransform="matrix(-1.5823852,0,0,2.3620105,179.18019,1.4496255)"
	   x1="35.995708"
	   y1="1.6246380"
	   x2="35.995708"
	   y2="11.710631" />
  </defs>
  <path
	 style="fill:#282828"
	 id="path2728"
	 d="M 116.72792,1.4402397 C 136.18961,1.4402397 151.85733,17.107953 151.85733,36.569644 L 151.85733,75.602314 L 142.09916,75.602314 L 142.09916,36.569644 C 142.09916,22.513979 130.78357,11.198407 116.72792,11.198407 C 102.67226,11.198407 91.356674,22.513979 91.356674,36.569644 L 91.356674,75.602314 L 81.59852,75.602314 L 81.59852,36.569644 C 81.59852,17.107953 97.266226,1.4402397 116.72792,1.4402397 z" />
  <path
	 style="opacity:0.65;fill:url(#linearGradient5205)"
	 id="path2730"
	 d="M 116.72792,3.9895607 C 135.10841,3.9895607 149.90568,19.800381 149.90568,37.837059 L 149.90568,74.224499 C 149.90568,87.885372 141.39613,99.482225 129.29157,104.32793 C 137.96453,100.37886 144.05079,91.917205 144.05079,81.885011 L 144.05079,35.92193 C 144.05079,22.129176 132.73521,10.110142 118.67955,10.110142 L 114.77628,10.110142 C 100.72062,10.110142 89.405046,22.129176 89.405046,35.92193 L 89.405046,81.885011 C 89.405046,91.917205 95.491296,100.37886 104.16427,104.32793 C 92.060477,99.482225 83.550149,87.885372 83.550149,74.224499 L 83.550149,37.837059 C 83.550149,19.800381 98.347434,3.9895607 116.72792,3.9895607 z" />
  <path
	 style="opacity:0.5;fill:url(#linearGradient5202)"
	 id="path2732"
	 d="M 116.72792,2.2682203 C 135.64482,2.2682203 150.87396,17.394961 150.87396,36.184682 L 150.87396,74.091314 C 150.87396,88.322539 142.11603,100.40359 129.65822,105.45157 C 138.5843,101.33764 144.84818,92.522704 144.84818,82.071661 L 144.84818,34.189596 C 144.84818,19.820987 133.20238,5.9914612 118.73651,5.9914612 L 114.71933,5.9914612 C 100.25346,5.9914612 88.607663,19.820987 88.607663,34.189596 L 88.607663,82.071661 C 88.607663,92.522704 94.872314,101.33764 103.79762,105.45157 C 91.339812,100.40359 82.581897,88.322539 82.581897,74.091314 L 82.581897,36.184682 C 82.581897,17.394961 97.811014,2.2682203 116.72792,2.2682203 z" />
  <path
	 style="opacity:0.5;fill:url(#linearGradient5193)"
	 id="path2738"
	 d="M 116.72792,5.5895438 C 135.10841,5.5895438 149.90568,18.189158 149.90568,36.569644 L 149.90568,73.650681 C 149.90568,87.571953 141.39613,99.38987 129.29157,104.32793 C 137.96453,100.30358 144.05079,91.680638 144.05079,81.457215 L 144.05079,34.61801 C 144.05079,20.562343 132.73521,9.2316939 118.67955,9.2316939 L 114.77628,9.2316939 C 100.72062,9.2316939 89.405046,20.562343 89.405046,34.61801 L 89.405046,81.457215 C 89.405046,91.680638 95.491296,100.30358 104.16427,104.32793 C 92.060477,99.38987 83.550149,87.571953 83.550149,73.650681 L 83.550149,36.569644 C 83.550149,18.189158 98.347434,5.5895438 116.72792,5.5895438 z" />
  <path
	 style="opacity:0.8;fill:url(#linearGradient5190)"
	 id="path2740"
	 d="M 116.72792,3.4171888 C 142.67604,3.4171888 148.66408,26.023628 148.66408,36.247877 C 148.66408,66.920629 146.66807,66.920629 146.66807,36.247877 C 146.66807,13.754144 130.70591,4.8766992 116.72792,4.8766992 C 102.74993,4.8766992 86.787774,14.672154 86.787774,36.247877 C 86.787774,66.920629 84.791767,66.920629 84.791767,36.247877 C 84.791767,26.023628 90.779791,3.4171888 116.72792,3.4171888 z" />
  <path
	 style="opacity:0.6;fill:url(#linearGradient5187)"
	 id="path2742"
	 d="M 116.72792,6.3767929 C 142.09916,6.3767929 147.95405,27.998978 147.95405,37.39176 C 147.95405,65.570107 146.00242,65.570107 146.00242,37.39176 C 146.00242,16.727638 130.39514,7.717613 116.72792,7.717613 C 103.06069,7.717613 87.453414,17.570641 87.453414,37.39176 C 87.453414,65.570107 85.501776,65.570107 85.501776,37.39176 C 85.501776,27.998978 91.356674,6.3767929 116.72792,6.3767929 z" />
  <path
	 style="opacity:0.8;fill:#ffffff"
	 id="path2744"
	 d="M 143.27506,15.487354 C 146.0629,20.576045 140.34003,17.359773 139.01078,15.752844 C 135.27404,11.235449 128.95833,7.9608718 123.41468,6.8921383 C 118.76572,5.9958819 118.0569,4.2008098 121.88511,3.9036563 C 129.51789,3.3111838 140.60244,10.608989 143.27506,15.487354 z" />
  <path
	 style="opacity:0.6;fill:#ffffff"
	 id="path2746"
	 d="M 147.49882,23.891917 C 147.2033,26.378712 142.39534,18.270376 138.6098,14.463804 C 133.98643,9.8147328 126.97824,6.560798 123.60675,6.1308355 C 117.59677,5.3643903 120.44937,2.4192077 124.21633,3.1633066 C 137.907,5.8676807 148.25237,17.550679 147.49882,23.891917 z" />
  <path
	 style="opacity:0.8;fill:#ffffff"
	 id="path2748"
	 d="M 90.33465,15.452493 C 87.528101,20.530887 93.26277,17.335704 94.597916,15.733679 C 98.351264,11.230074 104.679,7.9787703 110.22654,6.9304531 C 114.87877,6.051319 116.18805,4.2619848 112.36096,3.9507375 C 104.73042,3.3301698 93.025198,10.584 90.33465,15.452493 z" />
  <path
	 style="opacity:0.6;fill:#ffffff"
	 id="path2750"
	 d="M 86.244508,23.667988 C 86.530869,26.155852 91.368659,18.065273 95.168166,14.272665 C 99.80863,9.6406468 106.82875,6.4125354 110.20181,5.9949882 C 116.21456,5.2506738 113.39417,2.41217 109.60378,3.0258579 C 95.89208,5.2573294 85.514312,17.324018 86.244508,23.667988 z" />
  <g
	 id="shadow"
	 transform="matrix(0.9695988,0,0,0.9695988,2.4280954,3.915929)">
	<path
	   d="M 58,62 C 58,63.10457 45.463973,64 30,64 C 14.536027,64 1.9999998,63.10457 2,62 C 1.9999998,60.89543 14.536027,60 30,60 C 45.463973,60 58,60.89543 58,62 L 58,62 z"
	   transform="matrix(2.01283,0,0,2.01283,3.97435,-1.2826e-2)"
	   id="path2757"
	   style="opacity:0.4;fill:url(#rg3063)" />
	<path
	   d="M 58,62 C 58,63.10457 45.463973,64 30,64 C 14.536027,64 1.9999998,63.10457 2,62 C 1.9999998,60.89543 14.536027,60 30,60 C 45.463973,60 58,60.89543 58,62 L 58,62 z"
	   transform="matrix(2.01283,0,0,2.51603,3.97435,-34.2309)"
	   id="path2759"
	   style="opacity:0.4;fill:url(#rg3071)" />
	<path
	   d="M 58,62 C 58,63.10457 45.463973,64 30,64 C 14.536027,64 1.9999998,63.10457 2,62 C 1.9999998,60.89543 14.536027,60 30,60 C 45.463973,60 58,60.89543 58,62 L 58,62 z"
	   transform="matrix(2.01283,0,0,2.01283,3.97435,-2.02565)"
	   id="path2761"
	   style="opacity:0.4;fill:url(#rg3069)" />
  </g>
  <rect
	 style="fill:url(#linearGradient5156)"
	 id="rect2764"
	 y="59.531265"
	 x="25.797953"
	 width="78.065346"
	 ry="0.48479939"
	 rx="0.48479939"
	 height="64.244751" />
  <rect
	 style="opacity:0.02999998;fill:url(#linearGradient5153)"
	 id="rect2766"
	 y="59.531265"
	 x="25.546722"
	 width="78.065346"
	 ry="0.48479939"
	 rx="0.48479939"
	 height="64.244751" />
  <rect
	 style="opacity:0.02999998;fill:url(#linearGradient5150)"
	 id="rect2768"
	 y="59.280041"
	 x="25.546734"
	 width="78.065346"
	 ry="0.48479939"
	 rx="0.48479939"
	 height="64.244751" />
  <rect
	 style="opacity:0.02999998;fill:url(#linearGradient5147)"
	 id="rect2770"
	 y="59.280041"
	 x="25.546719"
	 width="78.065346"
	 ry="0.48479939"
	 rx="0.48479939"
	 height="64.244751" />
  <path
	 style="opacity:0.5;fill:#ffffff"
	 id="path2772"
	 d="M 102.52918,59.028803 C 100.77411,61.085951 84.935483,62.69993 65.048934,62.69993 C 45.435338,62.69993 29.859047,61.102855 27.735034,59.086164 C 27.764926,59.083043 27.759768,59.028803 27.791183,59.028803 L 102.52918,59.028803 z" />
  <path
	 style="opacity:0.24999994;fill:url(#linearGradient5143)"
	 id="path2774"
	 d="M 102.4089,115.15283 L 102.4089,122.8002 C 102.4089,123.3408 101.9899,123.77602 101.46944,123.77602 L 28.19181,123.77602 C 27.67135,123.77602 27.252352,123.3408 27.252352,122.8002 L 27.252352,95.636489 C 27.252352,124.25566 102.4089,75.392242 102.4089,115.15283 z" />
  <path
	 style="opacity:0.5;fill:#000000"
	 id="path2776"
	 d="M 27.294947,123.77603 C 29.05001,121.71888 44.888628,120.10489 64.775179,120.10489 C 84.388783,120.10489 99.96508,121.70196 102.08909,123.71867 C 102.05919,123.72178 102.06436,123.77603 102.03364,123.77603 L 27.294947,123.77603 z" />
  <use
	 height="128"
	 width="128"
	 y="0"
	 x="0"
	 id="use2778"
	 transform="matrix(1.6672251,0,0,1.9213667,4.4535347,5.1070626)"
	 xlink:href="#brass-highlights" />
  <use
	 height="128"
	 width="128"
	 y="0"
	 x="0"
	 id="use2780"
	 transform="matrix(-1.6672251,0,0,1.9213667,124.95617,5.1070724)"
	 xlink:href="#brass-highlights" />
</svg>
