/* XPM */
static char *timekpr[] = {
/* columns rows colors chars-per-pixel */
"64 64 248 2",
"   c #000000",
".  c #090909",
"X  c #141414",
"o  c #1B1B1B",
"O  c #252525",
"+  c #292929",
"@  c #323232",
"#  c #3C3C3C",
"$  c #402F2F",
"%  c #423333",
"&  c #593738",
"*  c #5A3D3D",
"=  c #642826",
"-  c #662A28",
";  c #6C2C2B",
":  c #722F2E",
">  c #6F312D",
",  c #70312E",
"<  c #613A3A",
"1  c #6C3D3D",
"2  c #743433",
"3  c #7A3636",
"4  c #713F3F",
"5  c #7B3A3A",
"6  c #434343",
"7  c #4C4C4C",
"8  c #544E4E",
"9  c #545454",
"0  c #5B5A5A",
"q  c #7D4343",
"w  c #616161",
"e  c #6C6363",
"r  c #6B6B6B",
"t  c #7B6565",
"y  c #766868",
"u  c #727272",
"i  c #7D7D7D",
"p  c #833938",
"a  c #8B3D3D",
"s  c #BF2725",
"d  c #BF2E2B",
"f  c #C60202",
"g  c #C70A0A",
"h  c #C51414",
"j  c #C91515",
"k  c #CE1718",
"l  c #C61C1C",
"z  c #CB1D1D",
"x  c #C62423",
"c  c #CB2323",
"v  c #C92827",
"b  c #C42C2B",
"n  c #CC2B2C",
"m  c #D12525",
"M  c #D12828",
"N  c #CE302F",
"B  c #CC2B30",
"V  c #C63633",
"C  c #CE3434",
"Z  c #C33A36",
"A  c #CF3738",
"S  c #CD3B3A",
"D  c #D23435",
"F  c #D43638",
"G  c #D53A3B",
"H  c #D93D3E",
"J  c #C9403D",
"K  c #872F7E",
"L  c #D63F41",
"P  c #DA3F40",
"I  c #8B4243",
"U  c #8E474A",
"Y  c #954343",
"T  c #9C4647",
"R  c #934A4B",
"E  c #805555",
"W  c #895757",
"Q  c #825F5F",
"!  c #935657",
"~  c #9D5454",
"^  c #A24A4B",
"/  c #AA4F4F",
"(  c #A75557",
")  c #AD5154",
"_  c #AC595A",
"`  c #B15456",
"'  c #BD5A5B",
"]  c #8C6868",
"[  c #906C6C",
"{  c #986C6C",
"}  c #857777",
"|  c #867778",
" . c #9F7677",
".. c #A56666",
"X. c #A06F6F",
"o. c #B76466",
"O. c #BC6163",
"+. c #B36A6A",
"@. c #BB6B6D",
"#. c #A97A7B",
"$. c #BA7779",
"%. c #B47D7D",
"&. c #CE4543",
"*. c #CD4A4A",
"=. c #D34444",
"-. c #DA4244",
";. c #D44648",
":. c #DC4748",
">. c #D54B4B",
",. c #DB4B4B",
"<. c #DA4E51",
"1. c #CF5551",
"2. c #D55454",
"3. c #DC5354",
"4. c #D35856",
"5. c #DD5658",
"6. c #D65A59",
"7. c #DC5B5C",
"8. c #E05657",
"9. c #E15C5D",
"0. c #C35C60",
"q. c #DD5F60",
"w. c #E15F61",
"e. c #CB6262",
"r. c #CB676A",
"t. c #D06666",
"y. c #DD6262",
"u. c #D3636B",
"i. c #DF6669",
"p. c #DE6B6C",
"a. c #C37173",
"s. c #DD7474",
"d. c #E16364",
"f. c #E36768",
"g. c #E36C6C",
"h. c #E47373",
"j. c #E97575",
"k. c #E57A7B",
"l. c #E87D7F",
"z. c #903F88",
"x. c #94458C",
"c. c #A25D9B",
"v. c #A2609B",
"b. c #D57A84",
"n. c #DC7D83",
"m. c #E47F80",
"M. c #838383",
"N. c #8C8B8B",
"B. c #939393",
"V. c #9B9B9B",
"C. c #A18989",
"Z. c #B38383",
"A. c #B48A8A",
"S. c #B09091",
"D. c #BD9293",
"F. c #BA9D9E",
"G. c #A4A4A4",
"H. c #ACA0A0",
"J. c #ACACAC",
"K. c #BEA6A7",
"L. c #B2ACAC",
"P. c #BAAFAF",
"I. c #B4B4B4",
"U. c #BBB4BB",
"Y. c #BBBBBB",
"T. c #DC8684",
"R. c #DE868D",
"E. c #DE898F",
"W. c #CE8B98",
"Q. c #DC8D94",
"!. c #E58283",
"~. c #E98485",
"^. c #E98789",
"/. c #E68B8C",
"(. c #EA8C8C",
"). c #EB8F93",
"_. c #E49494",
"`. c #EA9293",
"'. c #E59398",
"]. c #EC979B",
"[. c #E79898",
"{. c #EB9B9B",
"}. c #DD97A1",
"|. c #DF9AA1",
" X c #E19CA4",
".X c #EB9FA0",
"XX c #CCA2A2",
"oX c #DEA3AB",
"OX c #D6ABAB",
"+X c #CCA6B7",
"@X c #D4A3B1",
"#X c #DDA7B1",
"$X c #D3A8B6",
"%X c #DAAAB6",
"&X c #D3ADBB",
"*X c #DAAEBA",
"=X c #C8B4B4",
"-X c #C6BCBC",
";X c #DCB3BD",
":X c #EDA3A3",
">X c #E4A2AA",
",X c #EEACAC",
"<X c #F0A2A3",
"1X c #F2ABAB",
"2X c #E1AAB2",
"3X c #E1B7B7",
"4X c #EFB3B4",
"5X c #EBBBBE",
"6X c #F1B4B4",
"7X c #F2BCBC",
"8X c #CEB3C4",
"9X c #CDB7C9",
"0X c #CEB9CA",
"qX c #D3BDCC",
"wX c #D4BFD2",
"eX c #E6BDC3",
"rX c #E8BBC2",
"tX c #C3C3C3",
"yX c #CDCCCC",
"uX c #D0C6C6",
"iX c #D7C1CE",
"pX c #D5CECE",
"aX c #D5C5D3",
"sX c #D7C9D6",
"dX c #DBCDDA",
"fX c #D4D4D4",
"gX c #DED2DD",
"hX c #DCDCDC",
"jX c #E3C2CB",
"kX c #E1CBD5",
"lX c #EACBD3",
"zX c #E1CBDF",
"xX c #E4D0D9",
"cX c #E3CFE1",
"vX c #E2D6E1",
"bX c #E5DCE4",
"nX c #EBDDE4",
"mX c #E3E3E3",
"MX c #ECE4EB",
"NX c #ECEBEC",
"BX c #F0EAEF",
"VX c #F1E7F0",
"CX c #F2EDF2",
"ZX c #F4F3F4",
"AX c #F8F5F7",
"SX c #F9F7F9",
"DX c #FFFFFF",
"FX c None",
/* pixels */
"FXFXFXFXFXFXFXFXFXFXFXFXFXFXFXFXFXFXFXFXFXFXFXFXFXFXFXFXFXFXFXFXFXFXFXFXFXFXFXFXFXFXFXFXFXFXFXFXFXFXFXFXFXFXFXFXFXFXFXFXFXFXFXFX",
"FXFXFXFXFXFXFXFXFXFXFXFXFXFXFXFXFXFXFXFXFXFXFXFXFXFXFXFX# @ + + + + @ 6 FXFXFXFXFXFXFXFXFXFXFXFXFXFXFXFXFXFXFXFXFXFXFXFXFXFXFXFX",
"FXFXFXFXFXFXFXFXFXFXFXFXFXFXFXFXFXFXFXFXFXFXFXFXFX# N.tXmXNXY.G.G.Y.MXmXyXV.9 FXFXFXFXFXFXFXFXFXFXFXFXFXFXFXFXFXFXFXFXFXFXFXFXFX",
"FXFXFXFXFXFXFXFXFXFXFXFXFXFXFXFXFXFXFXFXFXFXFXr Y.NXAXAXZXfXY.I.I.U.fXNXAXSXZXyXM.FXFXFXFXFXFXFXFXFXFXFXFXFXFXFXFXFXFXFXFXFXFXFX",
"FXFXFXFXFXFXFXFXFXFXFXFXFXFXFXFXFXFXFXFXFXFXI.ZXAXZXhX-XP.L.L.J.J.J.L.P.-XpXNXAXZXyX9 FXFXFXFXFXFXFXFXFXFXFXFXFXFXFXFXFXFXFXFXFX",
"FXFXFXFXFXFXFXFXFXFXFXFXFXFXFXFXFXFXFXFXw hXSXAXuXF.Z.%.X.] e 0 0 w y [ #.Z.D.=XNXSXMXM.FXFXFXFXFXFXFXFXFXFXFXFXFXFXFXFXFXFXFXFX",
"FXFXFXFXFXFXFXFXFXFXFXFXFXFXFXFXFXFXFXM.NXSXNXK.$.@._ R 1 FXFXFXFXFXFX% 4 ~ o.a.D.hXAXZXG.FXFXFXFXFXFXFXFXFXFXFXFXFXFXFXFXFXFXFX",
"FXFXFXFXFXFXFXFXFXFXFXFXFXFXFXFXFXFXr NXSXmXS.@.O.) U FXFXFXFXFXFXFXFXFXFXFXU 0.r.%.yXAXZXN.FXFXFXFXFXFXFXFXFXFXFXFXFXFXFXFXFXFX",
"FXFXFXFXFXFXFXFXFXFXFXFXFXFXFXFXFX9 mXSXmXC...( q FXFXFXFXFXFXFXFXFXFXFXFXFXFX& ` O. .Y.ZXNX0 FXFXFXFXFXFXFXFXFXFXFXFXFXFXFXFXFX",
"FXFXFXFXFXFXFXFXFXFXFXFXFXFXFXFXFXI.NXhXH.Q q < FXFXFXFXFXFXFXFXFXFXFXFXFXFXFXFXFXI ! | J.NXJ.6 FXFXFXFXFXFXFXFXFXFXFXFXFXFXFXFX",
"FXFXFXFXFXFXFXFXFXFXFXFXFXFXFXFX0 hXMXyX} * $ FXFXFXFXFXFXFXFXFXFXFXFXFXFXFXFXFXFXFX< t V.tXfX0 FXFXFXFXFXFXFXFXFXFXFXFXFXFXFXFX",
"FXFXFXFXFXFXFXFXFXFXFXFXFXFXFXFXV.NXmXL.8 + FXFXFXFXFXFXFXFXFXFXFXFXFXFXFXFXFXFXFXFXFX% N.Y.hXB.+ FXFXFXFXFXFXFXFXFXFXFXFXFXFXFX",
"FXFXFXFXFXFXFXFXFXFXFXFXFXFXFX6 tXNXfXr + FXFXFXFXFXFXFXFXFXFXFXFXFXFXFXFXFXFXFXFXFXFX+ 6 J.fXY.+ FXFXFXFXFXFXFXFXFXFXFXFXFXFXFX",
"FXFXFXFXFXFXFXFXFXFXFXFXFXFXFX0 fXMXI.+ FXFXFXFXFXFXFXFXFXFXFXFXFXFXFXFXFXFXFXFXFXFXFXFX+ u yXyX6 FXFXFXFXFXFXFXFXFXFXFXFXFXFXFX",
"FXFXFXFXFXFXFXFXFXFXFXFXFXFXFXN.mXmXi + FXFXFXFXFXFXFXFXFXFXFXFXFXFXFXFXFXFXFXFXFXFXFXFX+ 7 U.hXr + FXFXFXFXFXFXFXFXFXFXFXFXFXFX",
"FXFXFXFXFXFXFXFXFXFXFXFXFXFX@ J.NXfX7 + FXFXFXFXFXFXFXFXFXFXFXFXFXFXFXFXFXFXFXFXFXFXFXFXFX+ G.hXV.@ FXFXFXFXFXFXFXFXFXFXFXFXFXFX",
"FXFXFXFXFXFXFXFXFXFXFXFXFXFX6 I.NXyX6 FXFXFXFXFXFXFXFXFXFXFXFXFXFXFXFXFXFXFXFXFXFXFXFXFXFX+ B.mXY.# FXFXFXFXFXFXFXFXFXFXFXFXFXFX",
"FXFXFXFXFXFXFXFXFXFXFXFXFXFX7 tXZXtX# FXFXFXFXFXFXFXFXFXFXFXFXFXFXFXFXFXFXFXFXFXFXFXFXFXFX+ N.mXtX9 FXFXFXFXFXFXFXFXFXFXFXFXFXFX",
"FXFXFXFXFXFXFXFXFXFXFXFXFXFX9 yXZXY.@ FXFXFXFXFXFXFXFXFXFXFXFXFXFXFXFXFXFXFXFXFXFXFXFXFXFX+ M.mXhXr FXFXFXFXFXFXFXFXFXFXFXFXFXFX",
"FXFXFXFXFXFXFXFXFXFXFXFXFXFX0 fXZXY.@ FXFXFXFXFXFXFXFXFXFXFXFXFXFXFXFXFXFXFXFXFXFXFXFXFXFX+ N.mXmXi FXFXFXFXFXFXFXFXFXFXFXFXFXFX",
"FXFXFXFXFXFXFXFXFXFXFXFXFXFX0 fXZXY.@ FXFXFXFXFXFXFXFXFXFXFXFXFXFXFXFXFXFXFXFXFXFXFXFXFXFX+ N.MXmXN.FXFXFXFXFXFXFXFXFXFXFXFXFXFX",
"FXFXFXFXFXFXFXFXFXFXFXFXFXFX0 fXZXY.@ FXFXFXFXFXFXFXFXFXFXFXFXFXFXFXFXFXFXFXFXFXFXFXFXFXFX+ N.MXmXN.FXFXFXFXFXFXFXFXFXFXFXFXFXFX",
"FXFXFXFXFXFXFXFXFXFXFXFXFXFX0 fXZXY.@ FXFXFXFXFXFXFXFXFXFXFXFXFXFXFXFXFXFXFXFXFXFXFXFXFXFX+ N.mXmXN.FXFXFXFXFXFXFXFXFXFXFXFXFXFX",
"FXFXFXFXFXFXFXFXFXFXFXFXFXFX0 yXZXY.@ FXFXFXFXFXFXFXFXFXFXFXFXFXFXFXFXFXFXFXFXFXFXFXFXFXFX+ N.mXmXN.FXFXFXFXFXFXFXFXFXFXFXFXFXFX",
"FXFXFXFXFXFXFXFXFXFXFXFXFXFX0 yXZXU.@ FXFXFXFXFXFXFXFXFXFXFXFXFXFXFXFXFXFXFXFXFXFXFXFXFXFX+ N.mXmXN.FXFXFXFXFXFXFXFXFXFXFXFXFXFX",
"FXFXFXFXFXFXFXFXFXFXFXFXFXFX0 yXZXU.@ FXFXFXFXFXFXFXFXFXFXFXFXFXFXFXFXFXFXFXFXFXFXFXFXFXFX+ N.mXmXN.FXFXFXFXFXFXFXFXFXFXFXFXFXFX",
"FXFXFXFXFXFXFXFXFXFXFXFXFXFX0 yXZXU.@ FXFXFXFXFXFXFXFXFXFXFXFXFXFXFXFXFXFXFXFXFXFXFXFXFXFX+ N.mXmXN.FXFXFXFXFXFXFXFXFXFXFXFXFXFX",
"FXFXFXFXFXFXFXFXFXFXFXFXFXFX0 yXNXU.@ FXFXFXFXFXFXFXFXFXFXFXFXFXFXFXFXFXFXFXFXFXFXFXFXFXFX+ N.mXmXN.FXFXFXFXFXFXFXFXFXFXFXFXFXFX",
"FXFXFXFXFXFXFXFXFXFXFXFXFXFX{ OX5XXXE FXFXFXFXFXFXFXFXFXFXFXFXFXFXFXFXFXFXFXFXFXFXFXFXFXFXW A.3X3XA.+.FXFXFXFXFXFXFXFXFXFXFXFXFX",
"FXFXFXFXFXFXFXFXFXFXFXFXP -.3.h.l.^.`.{.[.[._._._._._.T.6.S =.;.2.>.=.&.*.s._.[.[.[.[.[.{.{.`./.l.g.3.G FXFXFXFXFXFXFXFXFXFXFXFX",
"FXFXFXFXFXFXFXFXFXFXFXFXP -.g.{.`.j.5.P H -.=.;.;.=.v 3.~.>X#X%X&X*X%X2X{.f.A b &.=.=.L L :.d.l.].~.-.P FXFXFXFXFXFXFXFXFXFXFXFX",
"FXFXFXFXFXFXFXFXFXFXFXFXD =.:X6X4X:X/.d.=.D D N l >.'.$X0XaXdXgXwXvXgXdXsXqX#Xk.v x D F ,.g./.{.,X4Xy.D FXFXFXFXFXFXFXFXFXFXFXFX",
"FXFXFXFXFXFXFXFXFXFXFXFXH ,.:X7X6X:X`.k.3.G n l k.@XqXdXbXMXCXZXK CXAXCXNXbXgXiX X,.c :.9.j.(.:X6X7Xh.G FXFXFXFXFXFXFXFXFXFXFXFX",
"FXFXFXFXFXFXFXFXFXFXFXFXH ,.:X7X4X:X/.s.>.n v !.8XsXbXNXSXDXDXDXK SXDXDXDXDXZXMXgX#X7.l 3.h./.:X6X7Xk.H FXFXFXFXFXFXFXFXFXFXFXFX",
"FXFXFXFXFXFXFXFXFXFXFXFXH 3.,X7X6X:X`.f.-.l n.9XdXMXAXDXDXDXDXZXU.mXDXDXDXDXDXDXCXbX;X3.n h.(.:X6X7Xl.H FXFXFXFXFXFXFXFXFXFXFXFX",
"FXFXFXFXFXFXFXFXFXFXFXFXH 3.,X7X6X:X^.9.l i.8XgXMXDXSXZXDXDXDXmXY.fXDXDXDXhXfXDXDXZXbXoXF >./.{.,X6Xk.F FXFXFXFXFXFXFXFXFXFXFXFX",
"FXFXFXFXFXFXFXFXFXFXFXFXG 3.:X4X,X.Xh.C -.+XdXMXDXDXMXmXZXDXDXmXY.fXDXDXNXM.M.DXDXDXAXbXR.z !.{.,X4Xk.D FXFXFXFXFXFXFXFXFXFXFXFX",
"FXFXFXFXFXFXFXFXFXFXFXFXH 5.:X4X,X{.q.l b.aXMXDXDXDXZXmXmXDXDXmXY.fXDXDXG.M.J.DXDXDXDXCXkX-.>.{.1X6X~.-.FXFXFXFXFXFXFXFXFXFXFXFX",
"FXFXFXFXFXFXFXFXFXFXFXFXF 5.:X,X,X(.A G 8XvXZXDXDXDXDXmXmXNXDXmXY.fXDXhXM.M.ZXDXDXDXDXDXMXQ.z {.:X,X!.G FXFXFXFXFXFXFXFXFXFXFXFX",
"FXFXFXFXFXFXFXFXFXFXFXFXP 9.<X1X1X^.l u.aXMXDXDXDXDXDXAXmXmXSXmXY.fXDXB.M.tXDXDXDXV.J.DXAXkXm s.:X:Xm.F FXFXFXFXFXFXFXFXFXFXFXFX",
"FXFXFXFXFXFXFXFXFXFXFXFXH 7.{.:X:Xh.j W.gXZXDXDXDXfXDXDXNXmXNXmXY.fXtXM.B.SXDXtX+   X DXDXMX<.;.{.:Xm.G FXFXFXFXFXFXFXFXFXFXFXFX",
"FXFXFXFXFXFXFXFXFXFXFXFXF 6._.{.[.>.k 9XbXDXDXDXN.  @ tXSXmXmXmXY.yXM.M.fXhX9     o I.DXDXCXn.c {.{.!.-.FXFXFXFXFXFXFXFXFXFXFXFX",
"FXFXFXFXFXFXFXFXFXFXFXFXH d.`.{.].=.c aXMXDXDXDXtXX     9 fXmXfXY.G.M.V.i .   . i ZXDXDXDXZXQ.j {.{.!.-.FXFXFXFXFXFXFXFXFXFXFXFX",
"FXFXFXFXFXFXFXFXFXFXFXFXH d.`.].(.C n aXvXVXVXSXDXNXu .   . u yXI.i 9 o     9 mXDXDXVXVXVXSXoXg /.`.h.G FXFXFXFXFXFXFXFXFXFXFXFX",
"FXFXFXFXFXFXFXFXFXFXFXFXH 7.(.`.~.n B sXv.z.z.cXDXDXDXfX7     X 9 o     + tXDXDXDXDXx.z.z.CX2Xf (.`.h.-.FXFXFXFXFXFXFXFXFXFXFXFX",
"FXFXFXFXFXFXFXFXFXFXFXFXD 2.!./.k.n c sXNXDXDXDXDXDXDXDXDXI.+       X V.DXDXDXDXDXDXDXDXDXSX|.g (./.h.L FXFXFXFXFXFXFXFXFXFXFXFX",
"FXFXFXFXFXFXFXFXFXFXFXFXH 5.~.^.j.D z aXMXDXDXDXDXDXDXDXDXDXSXi O 9 NXDXDXDXDXDXDXDXDXDXDXSXE.j ~.~.g.L FXFXFXFXFXFXFXFXFXFXFXFX",
"FXFXFXFXFXFXFXFXFXFXFXFX-.8.l.~.g.G j &XnXDXDXDXDXDXDXDXDXDXDXDXDXDXDXDXDXDXDXDXDXDXDXDXDXZXp.c l.!.f.-.FXFXFXFXFXFXFXFXFXFXFXFX",
"FXFXFXFXFXFXFXFXFXFXFXFXG 3.h.k.y.L h b.vXSXDXDXDXDXDXDXDXDXDXDXDXDXDXDXDXDXDXDXDXDXDXDXDXMXF C h.k.y.G FXFXFXFXFXFXFXFXFXFXFXFX",
"FXFXFXFXFXFXFXFXFXFXFXFXP 3.h.k.9.-.z 5.dXCXDXDXDXDXDXDXDXDXDXDXDXDXDXDXDXDXDXDXDXDXDXDXDXeXz ,.h.j.9.H FXFXFXFXFXFXFXFXFXFXFXFX",
"FXFXFXFXFXFXFXFXFXFXFXFX-.7.f.g.3.G n c @XbXDXDXDXDXDXDXDXDXDXDXDXDXDXDXDXDXDXDXDXDXDXDXCXh.c 7.g.g.3.G FXFXFXFXFXFXFXFXFXFXFXFX",
"FXFXFXFXFXFXFXFXFXFXFXFX-.d.h.h.3.H G h i.dXBXDXDXDXDXDXDXDXDXDXDXDXDXDXDXDXDXDXDXDXDXSXeXM ,.d.j.j.8.P FXFXFXFXFXFXFXFXFXFXFXFX",
"FXFXFXFXFXFXFXFXFXFXFXFXP y.h.k.d.8.3.:.c }.vXZXDXDXDXDXDXDXDXDXDXDXDXDXDXDXDXDXDXDXDXnXf.v 7.d.h.h.5.G FXFXFXFXFXFXFXFXFXFXFXFX",
"FXFXFXFXFXFXFXFXFXFXFXFXP y.h.h.d.9.7.5.A G *XbXAXDXDXDXDXDXDXDXzXDXDXDXDXDXDXDXDXDXNX^.l 3.7.7.p.g.q.D FXFXFXFXFXFXFXFXFXFXFXFX",
"FXFXFXFXFXFXFXFXFXFXFXFX-.d.g.h.y.7.5.3.2.x 5.;XbXZXDXDXDXDXDXDXK SXDXDXDXDXDXDXDXMX].c <.7.d.d.g.h.f.-.FXFXFXFXFXFXFXFXFXFXFXFX",
"FXFXFXFXFXFXFXFXFXFXFXFXP y.i.p.7.7.5.5.2.2.x :.2XvXNXSXDXDXDXDXK SXDXDXDXDXDXZXnX(.c ;.5.7.y.d.g.h.f.:.FXFXFXFXFXFXFXFXFXFXFXFX",
"FXFXFXFXFXFXFXFXFXFXFXFX:.f.h.j.g.f.f.d.d.9.7.S C `.jXbXBXAXDXDXc.SXDXDXSXZXMX5Xf.c 3.7.w.d.f.f.g.g.f.,.FXFXFXFXFXFXFXFXFXFXFXFX",
"FXFXFXFXFXFXFXFXFXFXFXFX-.f.g.h.f.f.d.q.7.7.6.4.>.x -.].rXxXbXMXMXMXMXMXlX4Xj.v S 6.7.7.7.q.y.y.i.i.y.>.FXFXFXFXFXFXFXFXFXFXFXFX",
"FXFXFXFXFXFXFXFXFXFXFXFX-.y.i.p.i.y.q.7.7.6.6.6.4.4.&.x c ,.g.~.].).k.d.D x A 6.7.7.7.7.y.d.f.g.g.g.f.3.FXFXFXFXFXFXFXFXFXFXFXFX",
"FXFXFXFXFXFXFXFXFXFXFXFX-.i.g.g.g.f.i.y.y.y.7.7.6.6.4.4.1.&.Z d s b V J 1.4.6.6.7.y.y.d.f.g.g.j.j.h.g.5.FXFXFXFXFXFXFXFXFXFXFXFX",
"FXFXFXFXFXFXFXFXFXFXFXFX-.g.h.h.t.' ) ^ T Y a a p 3 2 : ; - = = = = - ; : 2 3 p a I Y T ^ / ' e.p.p.i.3.FXFXFXFXFXFXFXFXFXFXFXFX",
"FXFXFXFXFXFXFXFXFXFXFXFX;.' R q 5 5 5 5 5 3 3 3 2 2 2 2 2 2 , > > 2 2 2 2 2 2 2 2 2 3 3 3 5 5 5 5 I ` *.FXFXFXFXFXFXFXFXFXFXFXFX",
"FXFXFXFXFXFXFXFXFXFXFXFXFXFXFXFXFXFXFXFXFXFXFX+ + + + + + + + + + + + + + + + + + + + FXFXFXFXFXFXFXFXFXFXFXFXFXFXFXFXFXFXFXFXFX",
"FXFXFXFXFXFXFXFXFXFXFXFXFXFXFXFXFXFXFXFXFXFXFXFXFXFXFXFXFXFXFXFXFXFXFXFXFXFXFXFXFXFXFXFXFXFXFXFXFXFXFXFXFXFXFXFXFXFXFXFXFXFXFXFX"
};
